<svg width="323" height="76" viewBox="0 0 323 76" fill="none" xmlns="http://www.w3.org/2000/svg">
<path d="M28.1457 52.1325L29.1311 53.2509L31.5051 55.15C31.9387 54.9535 32.3681 54.7557 32.7932 54.5566M28.1457 52.1325L15.0113 60.1897C16.6438 56.6041 19.4242 51.5088 22.9005 46.7349M28.1457 52.1325C39.8454 43.3026 42.9355 34.3624 40.5072 33.5898C34.0989 33.8999 27.8066 39.9974 22.9005 46.7349M32.7932 54.5566C35.9113 55.4409 39.5442 60.6091 29.1311 74.207C28.1457 76.7456 57.3943 60.0793 50.4408 44.6271L50.1134 44.1657M32.7932 54.5566C39.5998 51.3686 45.3214 47.8485 50.1134 44.1657M50.1134 44.1657C60.0665 36.5162 66.0091 28.1641 69.3329 20.6246M30.22 24.8666C25.2064 21.5934 13.3644 21.9717 1.00293 44.6271C6.02662 40.5248 16.6913 34.0162 19.1604 40.7998C19.1604 41.086 19.4359 41.7945 19.5736 42.1129L19.6933 42.2857M30.22 24.8666C25.4621 31.0196 21.904 37.3233 19.6933 42.2857M30.22 24.8666C36.1949 17.1397 44.0618 9.65026 53.5286 5.35229M19.6933 42.2857C19.506 42.7063 19.3283 43.1172 19.1604 43.5175L22.2469 46.1289L22.9005 46.7349M53.5286 5.35229C59.3702 2.70018 65.821 1.26327 72.8122 1.73565C73.3852 6.12825 72.7136 12.9561 69.3329 20.6246M53.5286 5.35229L69.3329 20.6246" stroke="white" stroke-width="2" stroke-linejoin="round"/>
<circle cx="50.7876" cy="24.2906" r="5" stroke="white" stroke-width="2"/>
<path d="M4.32129 65.021L3.53125 65.7453" stroke="white" stroke-linecap="round"/>
<path d="M2.74121 72.0565L1.95117 72.7808" stroke="white" stroke-linecap="round"/>
<path d="M10.2212 70.1141L9.43115 70.8384" stroke="white" stroke-linecap="round"/>
<path d="M14.5127 54.8947L5.92969 63.3934" stroke="white" stroke-linecap="round"/>
<path d="M12.9043 61.9775L4.32129 70.4762" stroke="white" stroke-linecap="round"/>
<path d="M20.3042 59.9753L11.7212 68.474" stroke="white" stroke-linecap="round"/>
<path d="M97.752 58.0558V21.6921H123.107V28.8299H106.541V36.2873H121.811V43.4429H106.541V50.918H123.107V58.0558H97.752Z" fill="#EEE40A"/>
<path d="M146.065 39.9982V46.6921H129.233V39.9982H146.065Z" fill="white"/>
<path d="M176.006 39.1105L168.033 39.3235C167.951 38.7553 167.726 38.2523 167.359 37.8143C166.992 37.3645 166.512 37.0153 165.92 36.7667C165.34 36.5063 164.666 36.3761 163.896 36.3761C162.89 36.3761 162.032 36.5773 161.322 36.9798C160.623 37.3822 160.28 37.9268 160.292 38.6133C160.28 39.146 160.493 39.6076 160.931 39.9982C161.381 40.3889 162.18 40.7026 163.328 40.9393L168.584 41.9336C171.306 42.4544 173.33 43.3186 174.656 44.5259C175.994 45.7333 176.669 47.3313 176.68 49.32C176.669 51.1902 176.112 52.8178 175.011 54.2028C173.922 55.5877 172.431 56.6649 170.537 57.4343C168.643 58.1919 166.477 58.5707 164.038 58.5707C160.144 58.5707 157.072 57.7717 154.823 56.1737C152.586 54.5638 151.308 52.4095 150.988 49.7106L159.564 49.4975C159.753 50.4919 160.245 51.2494 161.038 51.7703C161.831 52.2911 162.843 52.5515 164.074 52.5515C165.187 52.5515 166.092 52.3444 166.79 51.9301C167.489 51.5158 167.844 50.9653 167.856 50.2788C167.844 49.6633 167.572 49.172 167.039 48.8051C166.506 48.4263 165.672 48.1304 164.536 47.9173L159.777 47.0117C157.043 46.5146 155.007 45.5972 153.669 44.2596C152.331 42.9102 151.669 41.1938 151.68 39.1105C151.669 37.2875 152.154 35.731 153.136 34.4407C154.119 33.1386 155.516 32.1443 157.327 31.4578C159.138 30.7712 161.274 30.4279 163.737 30.4279C167.43 30.4279 170.342 31.2033 172.472 32.7539C174.603 34.2928 175.781 36.4116 176.006 39.1105Z" fill="#EEE40A"/>
<path d="M193.704 58.5707C190.851 58.5707 188.389 58.0084 186.317 56.8839C184.258 55.7475 182.671 54.1318 181.559 52.0366C180.458 49.9296 179.907 47.426 179.907 44.5259C179.907 41.7087 180.464 39.2466 181.577 37.1396C182.689 35.0207 184.258 33.3754 186.282 32.2035C188.306 31.0198 190.691 30.4279 193.437 30.4279C195.379 30.4279 197.154 30.7298 198.764 31.3335C200.374 31.9372 201.765 32.8309 202.937 34.0146C204.108 35.1983 205.02 36.6602 205.671 38.4002C206.322 40.1285 206.648 42.1112 206.648 44.3484V46.5146H182.944V41.472H198.569C198.557 40.5487 198.338 39.726 197.912 39.0039C197.486 38.2819 196.9 37.7196 196.154 37.3171C195.42 36.9028 194.574 36.6957 193.615 36.6957C192.644 36.6957 191.774 36.9147 191.005 37.3527C190.235 37.7788 189.626 38.3647 189.176 39.1105C188.726 39.8444 188.489 40.6789 188.466 41.614V46.7454C188.466 47.8581 188.685 48.8347 189.123 49.6751C189.561 50.5037 190.182 51.1488 190.987 51.6105C191.792 52.0721 192.751 52.3029 193.863 52.3029C194.633 52.3029 195.331 52.1964 195.959 51.9833C196.586 51.7703 197.125 51.4566 197.574 51.0423C198.024 50.628 198.362 50.119 198.586 49.5153L206.559 49.7461C206.227 51.5335 205.499 53.0901 204.375 54.4159C203.262 55.7298 201.8 56.7537 199.989 57.4876C198.178 58.2097 196.083 58.5707 193.704 58.5707Z" fill="#EEE40A"/>
<path d="M219.765 42.5018V58.0558H211.082V30.783H219.338V35.7902H219.64C220.244 34.1211 221.274 32.8131 222.73 31.8661C224.186 30.9073 225.92 30.4279 227.932 30.4279C229.85 30.4279 231.513 30.86 232.922 31.7241C234.342 32.5764 235.443 33.7719 236.224 35.3107C237.017 36.8377 237.408 38.6251 237.396 40.673V58.0558H228.713V42.3775C228.725 40.8624 228.341 39.6786 227.559 38.8264C226.79 37.9741 225.719 37.548 224.346 37.548C223.434 37.548 222.629 37.7492 221.931 38.1517C221.244 38.5423 220.712 39.1045 220.333 39.8384C219.966 40.5723 219.776 41.4601 219.765 42.5018Z" fill="#EEE40A"/>
<path d="M252.732 58.4464C250.72 58.4464 248.891 57.9256 247.246 56.8839C245.601 55.8422 244.287 54.2797 243.304 52.1964C242.322 50.1131 241.83 47.5267 241.83 44.4372C241.83 41.2293 242.339 38.5896 243.357 36.5181C244.375 34.4466 245.707 32.9137 247.352 31.9194C249.01 30.9251 250.791 30.4279 252.697 30.4279C254.129 30.4279 255.354 30.6765 256.372 31.1737C257.39 31.659 258.231 32.2864 258.894 33.0558C259.557 33.8252 260.06 34.6242 260.403 35.4528H260.58V21.6921H269.263V58.0558H260.669V53.6346H260.403C260.036 54.475 259.515 55.2622 258.84 55.9961C258.166 56.73 257.319 57.3219 256.301 57.7717C255.295 58.2215 254.106 58.4464 252.732 58.4464ZM255.751 51.6815C256.804 51.6815 257.704 51.3856 258.45 50.7937C259.195 50.19 259.77 49.3437 260.172 48.2546C260.575 47.1656 260.776 45.8872 260.776 44.4194C260.776 42.9279 260.575 41.6436 260.172 40.5664C259.781 39.4893 259.207 38.6607 258.45 38.0806C257.704 37.5006 256.804 37.2106 255.751 37.2106C254.674 37.2106 253.762 37.5065 253.017 38.0984C252.271 38.6902 251.703 39.5248 251.312 40.6019C250.933 41.6791 250.744 42.9516 250.744 44.4194C250.744 45.8872 250.939 47.1656 251.33 48.2546C251.72 49.3437 252.283 50.19 253.017 50.7937C253.762 51.3856 254.674 51.6815 255.751 51.6815Z" fill="#EEE40A"/>
<path d="M287.502 58.5707C284.65 58.5707 282.188 58.0084 280.116 56.8839C278.056 55.7475 276.47 54.1318 275.358 52.0366C274.257 49.9296 273.706 47.426 273.706 44.5259C273.706 41.7087 274.263 39.2466 275.375 37.1396C276.488 35.0207 278.056 33.3754 280.081 32.2035C282.105 31.0198 284.49 30.4279 287.236 30.4279C289.177 30.4279 290.953 30.7298 292.563 31.3335C294.173 31.9372 295.564 32.8309 296.735 34.0146C297.907 35.1983 298.819 36.6602 299.47 38.4002C300.121 40.1285 300.446 42.1112 300.446 44.3484V46.5146H276.743V41.472H292.368C292.356 40.5487 292.137 39.726 291.711 39.0039C291.284 38.2819 290.699 37.7196 289.953 37.3171C289.219 36.9028 288.373 36.6957 287.414 36.6957C286.443 36.6957 285.573 36.9147 284.804 37.3527C284.034 37.7788 283.425 38.3647 282.975 39.1105C282.525 39.8444 282.288 40.6789 282.265 41.614V46.7454C282.265 47.8581 282.484 48.8347 282.922 49.6751C283.359 50.5037 283.981 51.1488 284.786 51.6105C285.591 52.0721 286.55 52.3029 287.662 52.3029C288.432 52.3029 289.13 52.1964 289.757 51.9833C290.385 51.7703 290.923 51.4566 291.373 51.0423C291.823 50.628 292.16 50.119 292.385 49.5153L300.358 49.7461C300.026 51.5335 299.298 53.0901 298.174 54.4159C297.061 55.7298 295.599 56.7537 293.788 57.4876C291.977 58.2097 289.882 58.5707 287.502 58.5707Z" fill="#EEE40A"/>
<path d="M304.881 58.0558V30.783H313.315V35.7546H313.599C314.096 33.9554 314.907 32.6178 316.031 31.7419C317.156 30.8541 318.464 30.4102 319.955 30.4102C320.358 30.4102 320.772 30.4398 321.198 30.499C321.624 30.5463 322.021 30.6232 322.388 30.7298V38.2759C321.974 38.1339 321.429 38.0214 320.754 37.9386C320.092 37.8557 319.5 37.8143 318.979 37.8143C317.949 37.8143 317.02 38.0451 316.191 38.5068C315.374 38.9566 314.729 39.5899 314.256 40.4066C313.794 41.2116 313.563 42.1585 313.563 43.2475V58.0558H304.881Z" fill="#EEE40A"/>
</svg>
