<svg width="259" height="265" viewBox="0 0 259 265" fill="none" xmlns="http://www.w3.org/2000/svg">
<path d="M13.2917 6.99353L0.289551 19.9957L23.1944 59.6063L38.0483 57.4277L128.717 148.106L120.983 155.533C117.022 159.494 117.022 165.495 120.983 169.456L125.003 173.487C128.964 177.448 135.025 177.448 137.996 173.487L149.76 185.241C148.77 191.183 149.76 198.243 154.711 203.195L208.245 256.421C219.138 267.314 236.963 267.314 247.856 256.421C260.729 244.538 260.61 226.773 249.717 215.88L196.491 162.336C191.539 157.385 184.479 155.404 178.537 157.385L165.535 145.631C168.506 141.669 168.506 135.609 165.535 132.628L161.821 128.925C160.921 127.986 159.84 127.239 158.644 126.729C157.448 126.218 156.16 125.955 154.86 125.955C153.559 125.955 152.272 126.218 151.076 126.729C149.879 127.239 148.799 127.986 147.898 128.925L141.402 135.421L50.7336 44.7523L52.8924 29.8983L13.2917 6.99353ZM206.393 7.30051C186.855 5.67648 160.95 18.6291 148.829 29.8884C133.916 44.8018 136.352 64.3001 148.205 83.125L127.172 104.168L142.026 120.874C149.948 113.942 161.633 113.942 169.555 120.874L173.586 124.894L174.517 125.825L183.181 117.16C201.085 127.687 219.722 129.202 233.932 114.992C247.796 102.118 262.828 70.3704 255.896 51.5554L228.05 80.3325C224.089 84.2936 218.088 84.2936 214.127 80.3325L185.34 51.5554C184.401 50.6552 183.654 49.5744 183.144 48.3781C182.634 47.1817 182.371 45.8945 182.371 44.5939C182.371 43.2932 182.634 42.006 183.144 40.8097C183.654 39.6133 184.401 38.5325 185.34 37.6323L214.137 8.85523C211.661 7.98379 209.186 7.53818 206.393 7.30051ZM97.4642 130.777L61.5572 166.674C57.6987 165.816 53.7552 165.401 49.8028 165.436C22.0754 165.436 0.289551 187.222 0.289551 214.949C0.289551 242.676 22.0754 264.462 49.8028 264.462C77.5301 264.462 99.316 242.676 99.316 214.949C99.316 209.869 98.5138 204.987 97.1473 200.402L118.19 179.359L115.101 175.338C107.179 167.416 107.238 155.414 114.17 147.482L97.4642 130.777ZM174.21 175.962C175.447 175.962 176.616 176.2 177.606 177.2L236.101 235.685C238.082 237.666 238.082 240.815 236.101 242.795C234.121 244.776 230.952 244.776 228.971 242.795L170.496 184.31C168.516 182.33 168.516 179.181 170.496 177.2C171.486 176.21 172.972 175.962 174.21 175.962ZM56.6158 189.252L75.4902 208.136L68.6772 233.814L42.9996 240.627L24.1153 221.742L30.9283 196.065L56.6158 189.252Z" fill="#EEE40A"/>
<path d="M14.2917 -0.00646973L1.28955 12.9957L24.1944 52.6063L39.0483 50.4277L129.717 141.106L121.983 148.533C118.022 152.494 118.022 158.495 121.983 162.456L126.003 166.487C129.964 170.448 136.025 170.448 138.996 166.487L150.76 178.241C149.77 184.183 150.76 191.243 155.711 196.195L209.245 249.421C220.138 260.314 237.963 260.314 248.856 249.421C261.729 237.538 261.61 219.773 250.717 208.88L197.491 155.336C192.539 150.385 185.479 148.404 179.537 150.385L166.535 138.631C169.506 134.669 169.506 128.609 166.535 125.628L162.821 121.925C161.921 120.986 160.84 120.239 159.644 119.729C158.448 119.218 157.16 118.955 155.86 118.955C154.559 118.955 153.272 119.218 152.076 119.729C150.879 120.239 149.799 120.986 148.898 121.925L142.402 128.421L51.7336 37.7523L53.8924 22.8983L14.2917 -0.00646973ZM207.393 0.300512C187.855 -1.32352 161.95 11.6291 149.829 22.8884C134.916 37.8018 137.352 57.3001 149.205 76.125L128.172 97.1681L143.026 113.874C150.948 106.942 162.633 106.942 170.555 113.874L174.586 117.894L175.517 118.825L184.181 110.16C202.085 120.687 220.722 122.202 234.932 107.992C248.796 95.1183 263.828 63.3704 256.896 44.5554L229.05 73.3325C225.089 77.2936 219.088 77.2936 215.127 73.3325L186.34 44.5554C185.401 43.6552 184.654 42.5744 184.144 41.3781C183.634 40.1817 183.371 38.8945 183.371 37.5939C183.371 36.2932 183.634 35.006 184.144 33.8097C184.654 32.6133 185.401 31.5325 186.34 30.6323L215.137 1.85523C212.661 0.983794 210.186 0.538176 207.393 0.300512ZM98.4642 123.777L62.5572 159.674C58.6987 158.816 54.7552 158.401 50.8028 158.436C23.0754 158.436 1.28955 180.222 1.28955 207.949C1.28955 235.676 23.0754 257.462 50.8028 257.462C78.5301 257.462 100.316 235.676 100.316 207.949C100.316 202.869 99.5138 197.987 98.1473 193.402L119.19 172.359L116.101 168.338C108.179 160.416 108.238 148.414 115.17 140.482L98.4642 123.777ZM175.21 168.962C176.447 168.962 177.616 169.2 178.606 170.2L237.101 228.685C239.082 230.666 239.082 233.815 237.101 235.795C235.121 237.776 231.952 237.776 229.971 235.795L171.496 177.31C169.516 175.33 169.516 172.181 171.496 170.2C172.486 169.21 173.972 168.962 175.21 168.962ZM57.6158 182.252L76.4902 201.136L69.6772 226.814L43.9996 233.627L25.1153 214.742L31.9283 189.065L57.6158 182.252Z" fill="#333D58"/>
</svg>
