<svg width="1001" height="1001" viewBox="0 0 1001 1001" fill="none" xmlns="http://www.w3.org/2000/svg">
<path d="M819.206 549.46L527.974 886.127V1000.57H626.81L917.562 663.349M993.369 532.794L931.956 461.682C929.643 458.739 926.829 456.381 923.692 454.755C920.555 453.13 917.161 452.273 913.724 452.238C906.527 452.794 899.81 455.571 895.012 461.682L847.033 517.238L945.39 628.349L993.369 572.794C1002.49 561.682 1002.49 543.905 993.369 532.794ZM432.016 778.349H96.1638V222.794L479.995 500.571L863.826 222.794V333.905H959.784V111.682C959.784 50.5713 916.603 0.571289 863.826 0.571289H96.1638C43.3871 0.571289 0.206055 50.5713 0.206055 111.682V778.349C0.206055 839.46 43.3871 889.46 96.1638 889.46H432.016V778.349ZM863.826 111.682L479.995 389.46L96.1638 111.682H863.826Z" fill="black"/>
</svg>
