<svg width="1001" height="1001" viewBox="0 0 1001 1001" fill="none" xmlns="http://www.w3.org/2000/svg">
<path d="M536.791 826.582C536.791 807.859 538.743 789.687 541.182 771.516H97.767V220.855L488.011 496.185L878.255 220.855V501.141C913.377 507.749 946.06 521.516 975.816 540.789V110.723C975.816 50.15 931.913 0.590576 878.255 0.590576H97.767C44.1085 0.590576 0.206055 50.15 0.206055 110.723V771.516C0.206055 832.088 44.1085 881.648 97.767 881.648H541.182C538.743 863.476 536.791 845.304 536.791 826.582ZM878.255 110.723L488.011 386.053L97.767 110.723H878.255ZM768.499 1000.59L634.352 835.392L690.938 771.516L768.499 859.071L943.621 661.384L1000.21 739.027L768.499 1000.59Z" fill="black"/>
</svg>
