<svg width="983" height="975" viewBox="0 0 983 975" fill="none" xmlns="http://www.w3.org/2000/svg">
<path fill-rule="evenodd" clip-rule="evenodd" d="M258.166 1.97267C271.881 -1.6934 286.491 0.234437 298.785 7.3327C311.08 14.431 320.055 26.1192 323.738 39.8298L355.809 159.33C357.633 166.13 358.1 173.224 357.184 180.205C356.267 187.186 353.984 193.918 350.465 200.017C343.359 212.334 331.651 221.324 317.916 225.008C304.182 228.693 289.546 226.771 277.229 219.664C264.912 212.558 255.922 200.85 252.238 187.116L220.38 67.5441C218.554 60.7482 218.085 53.6591 219 46.6818C219.914 39.7045 222.194 32.9758 225.71 26.8799C229.225 20.7841 233.908 15.4406 239.489 11.1547C245.07 6.86873 251.441 3.72439 258.237 1.90124L258.166 1.97267ZM2.02321 258.616C-1.64286 272.331 0.284974 286.94 7.38324 299.235C14.4815 311.53 26.1697 320.504 39.8804 324.187L159.38 356.187C166.259 358.29 173.49 358.987 180.644 358.236C187.797 357.484 194.726 355.3 201.017 351.813C207.308 348.326 212.833 343.608 217.261 337.94C221.69 332.273 224.931 325.771 226.793 318.823C228.655 311.876 229.098 304.624 228.097 297.501C227.096 290.378 224.671 283.53 220.966 277.365C217.261 271.2 212.353 265.843 206.534 261.616C200.714 257.388 194.103 254.376 187.095 252.758L67.5946 220.687C53.8795 217.021 39.27 218.949 26.9752 226.047C14.6805 233.145 5.70605 244.833 2.02321 258.544V258.616ZM316.309 398.973C312.12 386.395 311.514 372.899 314.559 359.996C317.604 347.093 324.18 335.293 333.55 325.915C342.921 316.537 354.716 309.951 367.617 306.896C380.517 303.841 394.013 304.436 406.595 308.616L915.166 478.258C980.88 500.187 980.023 593.401 913.88 614.116L769.166 659.616L962.023 852.473C975.417 865.876 982.937 884.05 982.931 902.998C982.924 921.946 975.39 940.115 961.988 953.508C948.585 966.902 930.41 974.422 911.462 974.416C892.514 974.409 874.345 966.876 860.952 953.473L667.666 760.116L621.809 906.258C601.095 972.33 507.809 973.187 485.88 907.473L316.238 398.901L316.309 398.973ZM144.452 615.758C139.512 620.877 133.603 624.961 127.068 627.772C120.534 630.583 113.505 632.064 106.392 632.129C99.2787 632.194 92.2238 630.842 85.6388 628.151C79.0538 625.461 73.0706 621.486 68.0383 616.458C63.006 611.431 59.0254 605.451 56.3286 598.869C53.6319 592.286 52.2731 585.233 52.3316 578.12C52.39 571.006 53.8645 563.976 56.669 557.439C59.4735 550.902 63.5518 544.988 68.6661 540.044L156.237 452.544C166.393 443.081 179.825 437.93 193.703 438.174C207.582 438.419 220.824 444.042 230.639 453.857C240.454 463.672 246.077 476.914 246.321 490.792C246.566 504.671 241.415 518.103 231.952 528.258L144.452 615.758ZM605.88 144.973C615.644 134.874 621.05 121.344 620.934 107.297C620.819 93.2511 615.191 79.812 605.263 69.8747C595.335 59.9374 581.902 54.297 567.855 54.1684C553.809 54.0397 540.274 59.4332 530.166 69.187L442.595 156.687C432.841 166.795 427.447 180.33 427.576 194.376C427.705 208.423 433.345 221.856 443.282 231.784C453.22 241.712 466.659 247.34 480.705 247.455C494.752 247.571 508.281 242.165 518.38 232.401L605.88 144.973Z" fill="black"/>
</svg>
