<svg width="1000" height="1000" viewBox="0 0 1000 1000" fill="none" xmlns="http://www.w3.org/2000/svg">
<path d="M86.9565 812.49C86.9565 869.781 125.978 916.656 173.913 916.656C184.405 916.43 194.739 914.163 204.287 909.99C213.836 905.818 222.399 899.828 229.457 892.385C237.467 884.566 248.369 880.086 259.801 879.915C271.234 879.744 282.276 883.895 290.538 891.47C298.799 899.045 303.615 909.433 303.941 920.386C304.268 931.339 300.079 941.974 292.283 949.989C277.143 965.606 258.836 978.096 238.482 986.694C218.128 995.292 196.156 999.815 173.913 999.988C77.9891 999.988 0 915.874 0 812.49C0 709.106 77.9891 624.993 173.913 624.993C196.156 625.165 218.128 629.689 238.482 638.287C258.836 646.884 277.143 659.374 292.283 674.992C300.079 683.007 304.268 693.642 303.941 704.594C303.615 715.547 298.799 725.936 290.538 733.511C282.276 741.086 271.234 745.237 259.801 745.065C248.369 744.894 237.467 740.414 229.457 732.595C222.399 725.152 213.836 719.163 204.287 714.99C194.739 710.818 184.405 708.55 173.913 708.325C125.978 708.325 86.9565 755.199 86.9565 812.49ZM519.565 767.23C497.826 761.189 475.326 754.991 462.772 747.231C455.978 743.012 456.087 742.022 456.685 737.335C456.78 733.55 457.815 729.842 459.706 726.517C461.596 723.193 464.287 720.349 467.554 718.221C492.554 701.971 550.924 709.21 575.272 715.304C586.428 718.17 598.316 716.672 608.319 711.139C618.323 705.605 625.623 696.491 628.614 685.799C631.605 675.108 630.042 663.716 624.268 654.129C618.494 644.542 608.982 637.546 597.826 634.68C586.304 631.815 483.696 607.493 419.348 649.055C405.74 657.807 394.306 669.317 385.854 682.772C377.401 696.228 372.137 711.298 370.435 726.918C359.565 809.626 444.62 833.219 495.435 847.281C560.978 865.458 566.739 872.906 564.891 886.812C563.207 899.364 558.043 904.208 553.261 907.281C528.261 923.218 470.815 915.406 447.011 909.156C435.883 906.179 423.978 907.56 413.913 912.996C403.848 918.431 396.449 927.476 393.342 938.14C390.236 948.804 391.678 960.213 397.35 969.858C403.022 979.504 412.459 986.595 423.587 989.571C450.542 996.339 478.277 999.838 506.141 999.988C537.772 999.988 572.989 994.78 601.196 976.759C615.118 967.894 626.817 956.182 635.453 942.467C644.089 928.752 649.447 913.373 651.141 897.437C663.043 807.282 573.315 782.126 519.565 767.23ZM971.141 627.44C965.764 625.595 960.059 624.784 954.354 625.052C948.649 625.321 943.055 626.664 937.892 629.005C932.729 631.346 928.098 634.639 924.263 638.696C920.428 642.753 917.465 647.494 915.543 652.648L847.826 834.417L780.054 652.648C776.177 642.24 768.144 633.734 757.722 629.002C747.301 624.27 735.345 623.699 724.484 627.414C713.623 631.13 704.747 638.828 699.809 648.815C694.871 658.803 694.275 670.261 698.152 680.669L806.848 972.332C809.862 980.429 815.415 987.434 822.746 992.388C830.078 997.341 838.829 1000 847.799 1000C856.769 1000 865.52 997.341 872.851 992.388C880.183 987.434 885.736 980.429 888.75 972.332L997.446 680.669C1001.32 670.267 1000.72 658.818 995.789 648.838C990.857 638.857 981.991 631.161 971.141 627.44ZM1000 333.329V458.328C1000 469.378 995.419 479.976 987.266 487.79C979.112 495.604 968.053 499.994 956.522 499.994C944.991 499.994 933.932 495.604 925.778 487.79C917.624 479.976 913.043 469.378 913.043 458.328V374.996H652.174C640.643 374.996 629.584 370.606 621.43 362.792C613.276 354.978 608.696 344.38 608.696 333.329V83.3323H130.435V458.328C130.435 469.378 125.854 479.976 117.7 487.79C109.547 495.604 98.4877 499.994 86.9565 499.994C75.4254 499.994 64.3665 495.604 56.2128 487.79C48.059 479.976 43.4783 469.378 43.4783 458.328V83.3323C43.4783 61.2312 52.6397 40.0353 68.9472 24.4075C85.2547 8.77964 107.372 1.28831e-05 130.435 1.28831e-05H652.174C657.885 -0.00429103 663.542 1.06981 668.82 3.16096C674.098 5.2521 678.894 8.31931 682.935 12.1874L987.283 303.851C991.319 307.723 994.52 312.319 996.702 317.377C998.884 322.436 1000 327.856 1000 333.329ZM851.576 291.663L695.652 142.238V291.663H851.576Z" fill="black"/>
</svg>
